<?xml version="1.0" encoding="utf-8"?><!DOCTYPE svg PUBLIC "-//W3C//DTD SVG 1.1//EN" "http://www.w3.org/Graphics/SVG/1.1/DTD/svg11.dtd"><svg version="1.1" id="Ebene_1" xmlns="http://www.w3.org/2000/svg" xmlns:xlink="http://www.w3.org/1999/xlink" x="0" y="0" width="210" height="56" viewBox="0 0 210 56"><title>Aareon Logo</title><circle fill="#FFFFFF" cx="28.41" cy="28" r="23.41"/><g><path fill="#A7A8AA" d="M86.086,24.87l0.002-9.037h-7.769c-3.126,0-4.321,2.119-4.387,5.035v4.002H86.086z M70.174,20.774c0-4.574,3.103-7.572,8.185-7.572l11.453,0.006v20.826h-3.724v-6.695H73.933v6.695h-3.759V20.774z"/><path fill="#A7A8AA" d="M196.841,18.413c5.038,0,8.127,3.059,8.159,7.557v8.064h-3.749l0.001-8.064c-0.088-2.859-1.289-4.979-4.372-4.979h-6.859v13.043h-3.859V20.991h-2.988v-2.578H196.841z"/><path fill="#A7A8AA" d="M102.984,34.034c-4.169,0-7.788-2.488-7.788-8.004c0-4.555,3.102-7.617,8.185-7.617l9.573,0.004v13.096h2.938v2.521H102.984z M109.215,31.444V21.005h-5.871c-3.201,0-4.38,2.232-4.392,5.258c-0.012,3.223,1.438,5.182,4.685,5.182H109.215z"/><path fill="#A7A8AA" d="M163.918,25.636v0.658c0,3.574,1.513,5.15,5.57,5.15h0.798h0.793c4.057,0,5.569-1.576,5.569-5.15v-0.658c0-3.967-1.952-5.15-5.566-5.15h-0.801h-0.797C165.87,20.485,163.918,21.669,163.918,25.636 M170.219,34.034h-1.332c-5.389,0-8.87-2.232-8.87-7.922l0.005-0.324c0.037-5.594,3.5-7.893,8.865-7.893h1.328h1.332c5.366,0,8.828,2.299,8.866,7.893l0.003,0.324c0,5.689-3.479,7.922-8.869,7.922H170.219z"/><path fill-rule="evenodd" clip-rule="evenodd" fill="#A7A8AA" d="M145.938,20.97c-4.458,0-4.886,2.727-5.07,3.863l5.73-0.002l5.736,0.004c-0.184-1.137-0.612-3.863-5.069-3.863l-0.664,0.004L145.938,20.97z M140.868,27.321c0.287,2.59,1.748,4.188,4.614,4.188h6.86v2.525h-7.512c-4.154,0-7.76-2.498-7.76-7.994c0-4.469,2.918-7.629,8.745-7.629h1.564c5.47,0,7.595,2.537,8.272,6.357c0.171,0.969,0.126,2.553,0.126,2.553H140.868z"/><path fill="#A7A8AA" d="M134.861,18.536l-6.191-0.006c-5.037,0-8.123,2.957-8.156,7.455v8.049h3.748v-7.998c0.088-2.859,1.287-4.926,4.369-4.926h6.23V18.536z"/></g><g><polygon fill="#005AA1" points="70.55,42.581 71.357,42.581 72.421,47.089 73.509,42.581 74.247,42.581 75.335,47.089 76.41,42.581 77.197,42.581 75.821,48.136 74.864,48.136 73.865,44.192 72.88,48.136 71.926,48.136 	"/><polygon fill="#005AA1" points="81.405,44.882 83.629,44.882 83.629,45.62 81.405,45.62 81.405,47.382 83.901,47.382 83.901,48.12 80.549,48.12 80.549,42.581 83.828,42.581 83.828,43.315 81.405,43.315 	"/><polygon fill="#005AA1" points="92.073,42.581 93.303,42.581 94.67,47.194 96.046,42.581 97.268,42.581 97.268,48.12 96.48,48.12 96.48,43.522 95.104,48.12 94.228,48.12 92.859,43.522 92.859,48.12 92.073,48.12 	"/><path fill="#005AA1" d="M102.526,42.563h0.832l1.896,5.557h-0.89l-0.41-1.299h-2.017l-0.418,1.299h-0.88L102.526,42.563z M103.728,46.083l-0.783-2.492l-0.783,2.492H103.728z"/><polygon fill="#005AA1" points="108.625,42.581 109.546,42.581 111.989,46.813 111.989,42.581 112.801,42.581 112.801,48.12 111.916,48.12 109.44,43.896 109.44,48.12 108.625,48.12 	"/><path fill="#005AA1" d="M118.003,42.563h0.832l1.895,5.557h-0.889l-0.41-1.299h-2.017l-0.418,1.299h-0.88L118.003,42.563z M119.204,46.083l-0.783-2.492l-0.783,2.492H119.204z"/><path fill="#005AA1" d="M126.127,45.312h1.851v2.293c-0.585,0.412-1.233,0.617-1.944,0.617c-0.728,0-1.306-0.227-1.733-0.682c-0.494-0.527-0.742-1.258-0.742-2.191c0-0.646,0.122-1.201,0.365-1.664c0.227-0.43,0.549-0.75,0.966-0.959c0.324-0.164,0.681-0.246,1.067-0.246c0.39,0,0.739,0.084,1.051,0.252c0.53,0.283,0.828,0.787,0.894,1.514h-0.76c-0.124-0.68-0.515-1.02-1.173-1.02c-0.448,0-0.796,0.158-1.042,0.475c-0.312,0.396-0.467,0.945-0.467,1.652c0,0.703,0.159,1.252,0.479,1.648c0.257,0.316,0.622,0.475,1.096,0.475c0.422,0,0.826-0.121,1.214-0.361v-1.129h-1.12V45.312z"/><polygon fill="#005AA1" points="132.559,44.882 134.782,44.882 134.782,45.62 132.559,45.62 132.559,47.382 135.054,47.382 135.054,48.12 131.702,48.12 131.702,42.581 134.981,42.581 134.981,43.315 132.559,43.315 	"/><rect x="143.222" y="42.581" fill="#005AA1" width="0.864" height="5.539"/><polygon fill="#005AA1" points="147.466,42.581 151.228,42.581 151.228,43.315 149.771,43.315 149.771,48.12 148.914,48.12 148.914,43.315 147.466,43.315 	"/><polygon fill="#005AA1" points="160.098,44.882 162.321,44.882 162.321,45.62 160.098,45.62 160.098,48.12 159.241,48.12 159.241,42.581 162.521,42.581 162.521,43.315 160.098,43.315 	"/><path fill="#005AA1" d="M168.039,42.479c0.636,0,1.174,0.232,1.615,0.697c0.495,0.523,0.742,1.248,0.742,2.176c0,0.922-0.247,1.646-0.742,2.172c-0.438,0.463-0.987,0.697-1.647,0.697c-0.657,0-1.206-0.234-1.645-0.697c-0.494-0.525-0.742-1.246-0.742-2.164c0-0.93,0.248-1.658,0.742-2.184C166.801,42.712,167.359,42.479,168.039,42.479 M167.986,43.218c-0.273,0-0.521,0.08-0.743,0.238c-0.265,0.191-0.46,0.49-0.584,0.902c-0.092,0.295-0.139,0.627-0.139,0.994c0,0.654,0.144,1.186,0.431,1.594c0.249,0.357,0.601,0.537,1.056,0.537c0.457,0,0.81-0.18,1.059-0.537c0.287-0.408,0.431-0.936,0.431-1.586c0-0.674-0.144-1.209-0.431-1.607C168.809,43.396,168.449,43.218,167.986,43.218"/><path fill="#005AA1" d="M174,42.581h1.192c0.457,0,0.81,0.016,1.056,0.049c0.463,0.064,0.819,0.244,1.071,0.539c0.238,0.285,0.356,0.635,0.356,1.051c0,0.73-0.353,1.238-1.059,1.521l1.363,2.379h-1.01l-1.263-2.232h-0.853v2.232H174V42.581z M174.855,45.149h0.386c0.487,0,0.822-0.033,1.007-0.102c0.184-0.064,0.323-0.178,0.418-0.342c0.084-0.143,0.126-0.307,0.126-0.494c0-0.365-0.146-0.619-0.435-0.758c-0.146-0.074-0.347-0.117-0.601-0.131c-0.103-0.006-0.289-0.008-0.561-0.008h-0.341V45.149z"/><polygon fill="#005AA1" points="185.349,42.581 186.319,42.581 187.557,44.966 188.778,42.581 189.736,42.581 187.971,45.872 187.971,48.12 187.118,48.12 187.118,45.872 	"/><path fill="#005AA1" d="M194.788,42.479c0.636,0,1.174,0.232,1.614,0.697c0.496,0.523,0.743,1.248,0.743,2.176c0,0.922-0.247,1.646-0.743,2.172c-0.438,0.463-0.986,0.697-1.647,0.697c-0.657,0-1.205-0.234-1.644-0.697c-0.495-0.525-0.742-1.246-0.742-2.164c0-0.93,0.247-1.658,0.742-2.184C193.55,42.712,194.108,42.479,194.788,42.479 M194.734,43.218c-0.272,0-0.521,0.08-0.742,0.238c-0.265,0.191-0.46,0.49-0.584,0.902c-0.092,0.295-0.138,0.627-0.138,0.994c0,0.654,0.143,1.186,0.43,1.594c0.249,0.357,0.601,0.537,1.055,0.537c0.457,0,0.811-0.18,1.06-0.537c0.286-0.408,0.43-0.936,0.43-1.586c0-0.674-0.144-1.209-0.43-1.607C195.558,43.396,195.197,43.218,194.734,43.218"/><path fill="#005AA1" d="M200.684,42.581h0.856v3.217c0,0.281,0.006,0.48,0.017,0.594c0.032,0.389,0.16,0.668,0.385,0.836c0.22,0.164,0.496,0.248,0.828,0.248c0.331,0,0.605-0.084,0.824-0.248c0.225-0.168,0.354-0.447,0.386-0.836c0.011-0.113,0.017-0.313,0.017-0.594v-3.217h0.855v3.23c0,0.418-0.014,0.721-0.04,0.904c-0.06,0.414-0.238,0.75-0.536,1.006c-0.384,0.334-0.886,0.5-1.506,0.5c-0.622,0-1.125-0.166-1.51-0.5c-0.295-0.254-0.473-0.59-0.535-1.006c-0.027-0.182-0.041-0.482-0.041-0.904V42.581z"/></g><path fill="#005AA1" d="M51.557,24.698c0.173,1.148,0.264,2.322,0.264,3.518c0,9.92-6.173,18.4-14.885,21.809L51.557,24.698z"/><path fill="#005AA1" d="M15.663,21.569c0,0-1.534-0.088-3.349,0.236c-0.652,0.117-1.148,0.271-1.771,0.531c-2.033,0.844-3.147,2.809-3.147,2.809l-1.079,1.869l-1.293,2.248C5.008,28.915,5,28.567,5,28.216c0-12.93,10.481-23.41,23.41-23.41c10.616,0,19.583,7.068,22.451,16.756h-3.637c0,0-1.534-0.09-3.349,0.236c-0.653,0.117-1.148,0.273-1.771,0.531c-2.033,0.844-3.147,2.809-3.147,2.809l-1.079,1.869L23.914,51.194c-1.015-0.197-2.004-0.461-2.967-0.783l17.947-31.086c-0.596,0.416-1.277,0.682-1.868,0.682c-1.068,0-1.436-0.867-0.818-1.936c0.617-1.07,1.984-1.938,3.054-1.938c0.591,0,0.967,0.266,1.08,0.684l2.012-3.482h-6.145c0,0-1.534-0.088-3.349,0.236c-0.653,0.117-1.148,0.271-1.771,0.531c-2.033,0.842-3.147,2.809-3.147,2.809l-1.078,1.869l-15.006,25.99c-0.741-0.742-1.435-1.535-2.072-2.371l12.026-20.83H15.663z"/></svg>